<svg width="415" height="227" viewBox="0 0 415 227" fill="none" xmlns="http://www.w3.org/2000/svg">
<path d="M11.0999 115.6C12.0999 115.6 101.9 114.2 101.9 114.2C101.9 114.2 12.2999 119.5 11.2999 119.5C10.2999 119.5 9.39994 118.7 9.29994 117.6C9.19994 116.5 9.99994 115.6 11.0999 115.6Z" fill="white"/>
<path d="M55.5997 123.4C56.0997 123.3 101.9 118.6 101.9 118.6C101.9 118.6 56.2997 125.3 55.7997 125.4C55.2997 125.5 54.7997 125.1 54.6997 124.5C54.6997 124 55.0997 123.5 55.5997 123.4Z" fill="white"/>
<path d="M55.0997 108.1C55.5997 108.1 101.6 109.4 101.6 109.4C101.6 109.4 55.6997 106.1 55.1997 106.1C54.6997 106.1 54.1997 106.5 54.1997 107.1C54.1997 107.7 54.4997 108.1 55.0997 108.1Z" fill="white"/>
<path d="M214.8 108C213.8 108 124.2 113.3 124.2 113.3C124.2 113.3 213.9 111.9 215 111.9C216 111.9 216.9 111 216.8 109.9C216.7 108.8 215.8 108 214.8 108Z" fill="white"/>
<path d="M170.9 119.2C170.4 119.2 124.4 117.9 124.4 117.9C124.4 117.9 170.3 121.2 170.8 121.2C171.3 121.2 171.8 120.8 171.8 120.2C171.9 119.7 171.5 119.2 170.9 119.2Z" fill="white"/>
<path d="M170.4 103.8C169.9 103.9 124.1 108.6 124.1 108.6C124.1 108.6 169.7 101.9 170.2 101.8C170.7 101.7 171.2 102.1 171.3 102.7C171.3 103.3 171 103.8 170.4 103.8Z" fill="white"/>
<path d="M111.1 7.89999C111.1 8.99999 112.4 102.1 112.4 102.1C112.4 102.1 107.3 9.19999 107.3 8.09999C107.3 6.99999 108.1 6.09999 109.1 6.09999C110.2 5.99999 111.1 6.79999 111.1 7.89999Z" fill="white"/>
<path d="M103.6 54.1C103.7 54.7 108.2 102.2 108.2 102.2C108.2 102.2 101.7 54.9001 101.7 54.4001C101.6 53.8001 102 53.3 102.5 53.3C103 53.3 103.5 53.5 103.6 54.1Z" fill="white"/>
<path d="M118.3 53.5C118.3 54.1 117 101.8 117 101.8C117 101.8 120.2 54.2 120.2 53.6C120.2 53 119.8 52.6 119.3 52.5C118.8 52.5 118.4 53 118.3 53.5Z" fill="white"/>
<path d="M118.4 219.2C118.4 218.1 113.3 125.2 113.3 125.2C113.3 125.2 114.6 218.3 114.6 219.4C114.6 220.5 115.5 221.3 116.6 221.3C117.6 221.2 118.4 220.3 118.4 219.2Z" fill="white"/>
<path d="M107.7 173.7C107.7 173.1 109 125.4 109 125.4C109 125.4 105.8 173 105.8 173.6C105.8 174.2 106.2 174.6 106.7 174.7C107.2 174.7 107.7 174.3 107.7 173.7Z" fill="white"/>
<path d="M122.4 173.2C122.3 172.6 117.8 125.1 117.8 125.1C117.8 125.1 124.3 172.4 124.3 172.9C124.4 173.5 124 174 123.5 174C123 174.1 122.5 173.7 122.4 173.2Z" fill="white"/>
<path d="M39.5998 40.2C40.3998 40.9 104.7 105.8 104.7 105.8C104.7 105.8 37.7998 43.8 36.9998 43.1C36.1998 42.4 36.1998 41.1 36.8998 40.3C37.6998 39.5 38.8998 39.5 39.5998 40.2Z" fill="white"/>
<path d="M65.6999 78.4C66.0999 78.7 101.7 109 101.7 109C101.7 109 64.9999 80.4 64.4999 80C64.0999 79.7 63.9999 79 64.2999 78.6C64.6999 78.2 65.2999 78.1 65.6999 78.4Z" fill="white"/>
<path d="M75.8 67.2C76.2 67.6 107.8 102.3 107.8 102.3C107.8 102.3 77.6 66.3 77.2 65.9C76.8 65.5 76.2 65.5 75.8 65.8C75.5 66.2 75.4 66.8 75.8 67.2Z" fill="white"/>
<path d="M188.8 184.3C188 183.6 121.1 121.6 121.1 121.6C121.1 121.6 185.5 186.5 186.2 187.2C186.9 187.9 188.2 187.9 188.9 187.1C189.6 186.3 189.6 185.1 188.8 184.3Z" fill="white"/>
<path d="M150.2 160C149.8 159.6 118.2 124.9 118.2 124.9C118.2 124.9 148.4 160.9 148.8 161.3C149.2 161.7 149.8 161.7 150.2 161.4C150.5 161.1 150.6 160.4 150.2 160Z" fill="white"/>
<path d="M160.3 148.8C159.9 148.5 124.3 118.2 124.3 118.2C124.3 118.2 161.1 146.9 161.5 147.2C161.9 147.5 162 148.2 161.7 148.6C161.3 149.1 160.7 149.2 160.3 148.8Z" fill="white"/>
<path d="M183.8 37.5C183.1 38.3 120.6 105.1 120.6 105.1C120.6 105.1 180.3 35.7 181.1 34.9C181.8 34.1 183 34.1 183.8 34.8C184.4 35.5 184.5 36.7 183.8 37.5Z" fill="white"/>
<path d="M146.9 64.5999C146.6 64.9999 117.4 102 117.4 102C117.4 102 145.1 63.7999 145.4 63.3999C145.7 62.9999 146.3 62.8999 146.8 63.1999C147.2 63.4999 147.3 64.0999 146.9 64.5999Z" fill="white"/>
<path d="M157.7 75C157.3 75.4 123.9 108.2 123.9 108.2C123.9 108.2 158.6 76.9 159 76.5C159.4 76.1 159.4 75.5 159.1 75.1C158.8 74.7 158.1 74.7 157.7 75Z" fill="white"/>
<path d="M44.9001 192.3C45.6001 191.5 105.4 122.1 105.4 122.1C105.4 122.1 42.9001 188.9 42.2001 189.7C41.5001 190.5 41.5001 191.7 42.3001 192.5C42.9001 193.1 44.1001 193.1 44.9001 192.3Z" fill="white"/>
<path d="M68.2999 152.2C68.6999 151.8 102.1 119 102.1 119C102.1 119 67.3999 150.4 66.9999 150.7C66.5999 151.1 66.5999 151.7 66.8999 152.1C67.2999 152.6 67.8999 152.6 68.2999 152.2Z" fill="white"/>
<path d="M79.1001 162.7C79.4001 162.3 108.6 125.3 108.6 125.3C108.6 125.3 80.9001 163.5 80.6001 163.9C80.3001 164.3 79.7001 164.4 79.2001 164.1C78.8001 163.7 78.8001 163.1 79.1001 162.7Z" fill="white"/>
<path d="M125.8 73L127.1 72.3L127.3 70.7L128.4 71.8L129.9 71.5L129.2 72.9L130 74.2L128.5 74L127.4 75.2L127.2 73.7L125.8 73Z" fill="white"/>
<path d="M128.6 153.2L129.9 152.5L130 150.9L131.1 152L132.6 151.7L132 153.1L132.7 154.5L131.2 154.2L130.2 155.4L129.9 153.9L128.6 153.2Z" fill="white"/>
<path d="M93.3999 74.2L94.6999 73.5L94.8999 71.9L95.9999 73L97.4999 72.7L96.7999 74.1L97.5999 75.4L96.0999 75.2L95.0999 76.4L94.7999 74.9L93.3999 74.2Z" fill="white"/>
<path d="M96.1997 154.9L97.4997 154.1L97.6997 152.6L98.7997 153.6L100.2 153.3L99.5997 154.7L100.3 156.1L98.7997 155.9L97.7997 157L97.5997 155.5L96.1997 154.9Z" fill="white"/>
<path d="M70.7998 98.6L72.1998 97.9L72.2998 96.3L73.3998 97.4L74.8998 97.1L74.1998 98.5L74.9998 99.9L73.4998 99.7L72.4998 100.8L72.1998 99.3L70.7998 98.6Z" fill="white"/>
<path d="M148.8 96.3L150.2 95.5L150.3 94L151.4 95.1L152.9 94.7L152.2 96.1L153 97.5L151.5 97.3L150.5 98.5L150.2 96.9L148.8 96.3Z" fill="white"/>
<path d="M149.9 129.4L151.2 128.6L151.4 127.1L152.5 128.1L153.9 127.8L153.3 129.2L154 130.6L152.5 130.4L151.5 131.5L151.3 130L149.9 129.4Z" fill="white"/>
<path d="M51 91.5L52.9 90.4L53.2 88.2L54.7 89.7L56.9 89.3L55.9 91.3L57 93.3L54.8 93L53.4 94.7L53 92.4L51 91.5Z" fill="white"/>
<path d="M83.3999 55.6L85.2999 54.5L85.4999 52.3L87.0999 53.8L89.1999 53.4001L88.2999 55.4001L89.3999 57.4001L87.1999 57.1L85.7999 58.8L85.3999 56.5L83.3999 55.6Z" fill="white"/>
<path d="M87.3999 173.9L89.3999 172.8L89.5999 170.6L91.1999 172.2L93.2999 171.7L92.3999 173.7L93.4999 175.7L91.2999 175.4L89.7999 177.1L89.3999 174.9L87.3999 173.9Z" fill="white"/>
<path d="M165.2 86.7L167.1 85.7L167.4 83.4L168.9 85L171.1 84.5L170.1 86.6L171.2 88.5L169 88.2L167.6 89.9L167.2 87.7L165.2 86.7Z" fill="white"/>
<path d="M131.8 54.2001L133.7 53.1L134 50.8L135.5 52.4001L137.7 51.9001L136.7 54L137.8 55.9001L135.7 55.6L134.2 57.3L133.8 55.1L131.8 54.2001Z" fill="white"/>
<path d="M135.9 172L137.8 170.9L138 168.6L139.6 170.2L141.7 169.7L140.8 171.8L141.9 173.7L139.7 173.4L138.2 175.1L137.8 172.9L135.9 172Z" fill="white"/>
<path d="M29.3999 82.5L32.0999 81.1L32.3999 77.9L34.5999 80.1L37.4999 79.5L36.1999 82.3L37.6999 85L34.6999 84.6L32.6999 86.9L32.1999 83.8L29.3999 82.5Z" fill="white"/>
<path d="M72.6997 34.4001L75.3997 32.9001L75.6997 29.8L77.8997 32L80.8997 31.3L79.5997 34.1L81.0997 36.9001L78.0997 36.4001L75.9997 38.8L75.4997 35.7001L72.6997 34.4001Z" fill="white"/>
<path d="M78.2998 196L80.9998 194.5L81.2998 191.4L83.4998 193.6L86.3998 192.9L85.0998 195.7L86.5998 198.5L83.5998 198L81.5998 200.4L81.0998 197.3L78.2998 196Z" fill="white"/>
<path d="M137.7 32L140.4 30.5L140.7 27.4L142.9 29.5L145.8 28.9L144.5 31.7L146 34.4L143 34L141 36.3L140.5 33.3L137.7 32Z" fill="white"/>
<path d="M143.3 193.6L145.9 192.1L146.3 189L148.4 191.2L151.4 190.5L150.1 193.3L151.6 196.1L148.6 195.6L146.6 198L146 194.9L143.3 193.6Z" fill="white"/>
<path d="M71.6997 132.9L73.0997 133.6L73.2997 135.1L74.2997 133.9L75.7997 134.2L75.0997 132.8L75.6997 131.4L74.2997 131.7L73.1997 130.6L72.9997 132.2L71.6997 132.9Z" fill="white"/>
<path d="M52.6997 141.7L54.6997 142.6L55.0997 144.8L56.5997 143.2L58.6997 143.5L57.6997 141.5L58.5997 139.4L56.4997 139.9L54.8997 138.3L54.5997 140.6L52.6997 141.7Z" fill="white"/>
<path d="M31.7998 152.2L34.5998 153.5L35.0998 156.6L37.0998 154.2L40.0998 154.7L38.5998 151.9L39.8998 149.1L36.9998 149.8L34.7998 147.6L34.4998 150.7L31.7998 152.2Z" fill="white"/>
<path d="M184.5 76.8L187.2 75.3L187.5 72.2L189.7 74.4L192.6 73.7L191.3 76.5L192.8 79.3L189.8 78.8L187.8 81.2L187.3 78.1L184.5 76.8Z" fill="white"/>
<path d="M0 95H415V135H0V95Z" fill="#181A2F"/>
<path d="M45.4999 108.6C45.4999 109.8 44.7999 110.6 43.4999 110.6H37.2999C35.7999 110.6 35.0999 109.9 34.2999 108.6C33.0999 106.6 31.2999 104.9 27.5999 104.9C22.0999 104.9 18.6999 108.4 18.6999 115.1C18.6999 121.8 22.1999 125.3 27.5999 125.3C31.5999 125.3 33.4999 123.3 34.7999 121.1C35.4999 119.9 36.2999 119.1 37.7999 119.1H43.9999C45.1999 119.1 45.9999 119.8 45.9999 121.1C45.9999 127 39.5999 133.5 27.6999 133.5C14.5999 133.5 7.3999 126.3 7.3999 115.2C7.3999 104 14.5999 96.9 27.6999 96.9C39.2999 96.7 45.4999 102.9 45.4999 108.6Z" fill="white"/>
<path d="M76.6 126.2H61L59.3 130.7C58.9 131.7 58.1 132.4 57.1 132.4H49.2C48.2 132.4 47.5 131.7 48 130.7L61.9 99.4999C62.3 98.4999 63.1 97.7999 64.1 97.7999H74.3C75.3 97.7999 76.1 98.4999 76.5 99.4999L90.4 130.8C90.8 131.8 90.2 132.5 89.2 132.5H80.8C79.8 132.5 79 131.8 78.6 130.8L76.6 126.2ZM64.5 118H73.2L69.2 108.1H68.7L64.5 118Z" fill="white"/>
<path d="M130.1 130.7C130.1 131.7 129.4 132.4 128.4 132.4H121C120 132.4 119.3 131.7 119.3 130.7V106.2H113.4C110.2 106.2 108.4 107.9 107.7 110.7L102.7 130.8C102.5 131.8 101.7 132.5 100.8 132.5H93.2999C92.0999 132.5 91.2999 131.7 91.5999 130.8L96.5999 110.7C98.5999 102.8 103.5 97.7999 113.5 97.7999H128.6C129.6 97.7999 130.3 98.4999 130.3 99.4999V130.7H130.1Z" fill="white"/>
<path d="M171.7 133.4C160.5 133.4 154.8 127.7 153.4 119.5H148.4V130.7C148.4 131.7 147.7 132.4 146.7 132.4H139.3C138.3 132.4 137.6 131.7 137.6 130.7V99.5C137.6 98.5 138.3 97.8 139.3 97.8H146.7C147.7 97.8 148.4 98.5 148.4 99.5V111.1H153.4C154.9 102.4 160.6 96.7 171.7 96.7C183.6 96.7 190.5 103.6 190.5 115C190.6 126.5 183.6 133.4 171.7 133.4ZM171.7 104.9C167.5 104.9 164.3 108.1 164.3 115.1C164.3 122 167.5 125.3 171.7 125.3C175.9 125.3 179.1 122.1 179.1 115.1C179.2 108.1 176 104.9 171.7 104.9Z" fill="white"/>
<path d="M227.7 104.4C227.7 105.4 227 106.1 226 106.1H215.6V130.6C215.6 131.6 214.9 132.3 213.9 132.3H206.5C205.5 132.3 204.8 131.6 204.8 130.6V106.1H194.4C193.4 106.1 192.7 105.4 192.7 104.4V99.4C192.7 98.4 193.4 97.7 194.4 97.7H226C227 97.7 227.7 98.4 227.7 99.4V104.4Z" fill="white"/>
<path d="M283.2 108.6C283.2 109.8 282.5 110.6 281.2 110.6H275C273.5 110.6 272.8 109.9 272 108.6C270.8 106.6 269 104.9 265.3 104.9C259.8 104.9 256.4 108.4 256.4 115.1C256.4 121.8 259.9 125.3 265.3 125.3C269.3 125.3 271.2 123.3 272.5 121.1C273.2 119.9 274 119.1 275.5 119.1H281.7C282.9 119.1 283.7 119.8 283.7 121.1C283.7 127 277.3 133.5 265.4 133.5C252.3 133.5 245.1 126.3 245.1 115.2C245.1 104 252.3 96.9 265.4 96.9C277.1 96.7 283.2 102.9 283.2 108.6Z" fill="white"/>
<path d="M314.5 112.6L302.1 130.7C301.6 131.4 300.6 132.4 299.4 132.4H291C290 132.4 289.3 131.7 289.3 130.7V99.4999C289.3 98.4999 290 97.7999 291 97.7999H298.4C299.4 97.7999 300.1 98.4999 300.1 99.4999V117.6H300.6L313 99.4999C313.5 98.7999 314.5 97.7999 315.7 97.7999H324.1C325.1 97.7999 325.8 98.4999 325.8 99.4999V130.7C325.8 131.7 325.1 132.4 324.1 132.4H316.7C315.7 132.4 315 131.7 315 130.7V112.6H314.5Z" fill="white"/>
<path d="M365.5 104.4C365.5 105.4 364.8 106.1 363.8 106.1H353.4V130.6C353.4 131.6 352.7 132.3 351.7 132.3H344.3C343.3 132.3 342.6 131.6 342.6 130.6V106.1H332.2C331.2 106.1 330.5 105.4 330.5 104.4V99.4C330.5 98.4 331.2 97.7 332.2 97.7H363.9C364.9 97.7 365.6 98.4 365.6 99.4V104.4H365.5Z" fill="white"/>
<path d="M395.2 112.6L382.8 130.7C382.3 131.4 381.3 132.4 380.1 132.4H371.7C370.7 132.4 370 131.7 370 130.7V99.4999C370 98.4999 370.7 97.7999 371.7 97.7999H379.1C380.1 97.7999 380.8 98.4999 380.8 99.4999V117.6H381.3L393.7 99.4999C394.2 98.7999 395.2 97.7999 396.4 97.7999H404.8C405.8 97.7999 406.5 98.4999 406.5 99.4999V130.7C406.5 131.7 405.8 132.4 404.8 132.4H397.4C396.4 132.4 395.7 131.7 395.7 130.7V112.6H395.2Z" fill="white"/>
<path d="M178.8 153.2V140.2H186.1V142.3H181.1V153.1H178.8V153.2Z" fill="white"/>
<path d="M187.4 153.2H185.3V144.9H187.4V150.2L191.3 144.9H193.4V153.2H191.3V147.9L187.4 153.2Z" fill="white"/>
<path d="M201.5 153.2V146.9H197.9V153.2H195.8V144.9H203.6V153.2H201.5Z" fill="white"/>
<path d="M211.7 153.2V146.9H208.1V153.2H206V144.9H213.8V153.2H211.7Z" fill="white"/>
<path d="M222.7 150.8L223.3 152.3C222.5 153 221.4 153.3 220.1 153.3C218.8 153.3 217.7 152.9 216.8 152.1C215.9 151.3 215.6 150.2 215.6 148.9C215.6 147.7 216 146.6 216.8 145.8C217.6 145 218.7 144.5 220 144.5C221.1 144.5 222 144.9 222.8 145.6C223.6 146.3 223.9 147.3 223.9 148.4C223.9 148.9 223.9 149.3 223.8 149.5H217.8C217.9 150.1 218.2 150.6 218.6 150.9C219.1 151.2 219.6 151.4 220.3 151.4C221.3 151.6 222.1 151.3 222.7 150.8ZM220 146.4C218.8 146.4 218.1 147 217.8 148.2H221.9C221.9 147.7 221.7 147.2 221.4 146.9C221 146.6 220.6 146.4 220 146.4Z" fill="white"/>
<path d="M225.7 156.9V144.8H227.8V145.6C228.1 145.3 228.4 145.1 228.9 144.9C229.4 144.7 229.9 144.6 230.4 144.6C231.5 144.6 232.5 145 233.1 145.8C233.7 146.6 234.1 147.6 234.1 148.9C234.1 150.2 233.7 151.3 232.9 152.1C232.1 153 231 153.4 229.7 153.4C228.9 153.4 228.2 153.3 227.8 153V156.9H225.7ZM229.8 146.6C229.1 146.6 228.4 146.9 227.9 147.5V150.9C228.4 151.2 229 151.4 229.7 151.4C230.4 151.4 231 151.2 231.4 150.7C231.8 150.2 232 149.6 232 148.9C232 148.2 231.8 147.7 231.4 147.2C231 146.8 230.5 146.6 229.8 146.6Z" fill="white"/>
<path d="M236.1 153.2V144.9H238L240.8 148.4L243.5 144.9H245.4V153.2H243.3V148.1L240.8 151.2H240.7L238.2 148.1V153.2H236.1Z" fill="white"/>
<path d="M248.4 147L247.9 145.4C248.8 144.9 249.8 144.6 250.8 144.6C252 144.6 252.8 144.9 253.4 145.5C253.9 146.1 254.2 146.9 254.2 148.1V153.2H252.3V152.2C251.8 152.9 251 153.3 249.8 153.3C249 153.3 248.4 153.1 247.9 152.6C247.4 152.1 247.2 151.5 247.2 150.7C247.2 149.8 247.5 149.2 248.1 148.7C248.7 148.2 249.4 148 250.3 148C251.1 148 251.7 148.2 252.2 148.5C252.2 147.8 252.1 147.2 251.9 146.9C251.7 146.5 251.3 146.4 250.7 146.4C250 146.4 249.3 146.6 248.4 147ZM250.6 151.5C251.3 151.5 251.9 151.2 252.2 150.7V149.8C251.8 149.5 251.4 149.4 250.7 149.4C250.3 149.4 250 149.5 249.7 149.7C249.4 149.9 249.3 150.1 249.3 150.5C249.3 150.8 249.4 151 249.6 151.2C249.9 151.4 250.2 151.5 250.6 151.5Z" fill="white"/>
<path d="M256.4 156.9V144.8H258.5V145.6C258.8 145.3 259.1 145.1 259.6 144.9C260.1 144.7 260.6 144.6 261.1 144.6C262.2 144.6 263.2 145 263.8 145.8C264.4 146.6 264.8 147.6 264.8 148.9C264.8 150.2 264.4 151.3 263.6 152.1C262.8 153 261.7 153.4 260.4 153.4C259.6 153.4 258.9 153.3 258.5 153V156.9H256.4ZM260.4 146.6C259.7 146.6 259 146.9 258.5 147.5V150.9C259 151.2 259.6 151.4 260.3 151.4C261 151.4 261.6 151.2 262 150.7C262.4 150.2 262.6 149.6 262.6 148.9C262.6 148.2 262.4 147.7 262 147.2C261.7 146.8 261.1 146.6 260.4 146.6Z" fill="white"/>
<path d="M266.7 153.2V144.9H268.8V153.2H266.7ZM274.6 144.8L271.4 148.8L275 153.2H272.2L268.9 149L271.9 144.9H274.6V144.8Z" fill="white"/>
<path d="M282.3 150.8L282.9 152.3C282.1 153 281 153.3 279.7 153.3C278.4 153.3 277.3 152.9 276.4 152.1C275.5 151.3 275.2 150.2 275.2 148.9C275.2 147.7 275.6 146.6 276.4 145.8C277.2 145 278.3 144.5 279.6 144.5C280.7 144.5 281.6 144.9 282.4 145.6C283.2 146.3 283.5 147.3 283.5 148.4C283.5 148.9 283.5 149.3 283.4 149.5H277.4C277.5 150.1 277.8 150.6 278.2 150.9C278.7 151.2 279.2 151.4 279.9 151.4C280.9 151.6 281.7 151.3 282.3 150.8ZM279.6 146.4C278.4 146.4 277.7 147 277.4 148.2H281.5C281.5 147.7 281.3 147.2 281 146.9C280.6 146.6 280.2 146.4 279.6 146.4Z" fill="white"/>
<path d="M284.4 146.9V144.8H292V146.9H289.3V153.1H287.2V146.9H284.4Z" fill="white"/>
<path d="M301.5 156.9V153.4H301.4C300 153.4 298.9 153 298.1 152.2C297.3 151.4 296.9 150.3 296.9 149C296.9 147.8 297.3 146.8 298.1 145.9C298.9 145 300 144.6 301.4 144.6H301.5V140.2H303.6V144.6H303.7C305.1 144.6 306.2 145 307 145.8C307.8 146.6 308.2 147.7 308.2 148.9C308.2 150.2 307.8 151.3 307.1 152.1C306.3 152.9 305.2 153.3 303.8 153.3H303.7V156.8H301.5V156.9ZM299.2 149C299.2 149.7 299.4 150.3 299.8 150.7C300.2 151.1 300.8 151.4 301.5 151.4H301.6V146.6H301.5C300.8 146.6 300.2 146.8 299.8 147.3C299.4 147.8 299.2 148.3 299.2 149ZM303.8 146.6H303.7V151.4H303.8C304.5 151.4 305.1 151.2 305.5 150.8C305.9 150.4 306.1 149.8 306.1 149.1C306.1 148.4 305.9 147.9 305.5 147.4C305.1 146.9 304.5 146.6 303.8 146.6Z" fill="white"/>
<path d="M316.7 150.8L317.3 152.3C316.5 153 315.4 153.3 314.1 153.3C312.8 153.3 311.7 152.9 310.8 152.1C309.9 151.3 309.6 150.2 309.6 148.9C309.6 147.7 310 146.6 310.8 145.8C311.6 145 312.7 144.5 314 144.5C315.1 144.5 316 144.9 316.8 145.6C317.6 146.3 317.9 147.3 317.9 148.4C317.9 148.9 317.9 149.3 317.8 149.5H311.8C311.9 150.1 312.2 150.6 312.6 150.9C313.1 151.2 313.6 151.4 314.3 151.4C315.3 151.6 316.1 151.3 316.7 150.8ZM314 146.4C312.8 146.4 312.1 147 311.8 148.2H315.9C315.9 147.7 315.7 147.2 315.4 146.9C315 146.6 314.6 146.4 314 146.4Z" fill="white"/>
<path d="M321.9 153.2H319.8V144.9H321.9V150.2L325.8 144.9H327.9V153.2H325.8V147.9L321.9 153.2ZM321 140.6H322.9C322.9 141 323 141.3 323.1 141.6C323.3 141.9 323.5 142 323.8 142C324.1 142 324.3 141.9 324.5 141.6C324.7 141.3 324.7 141 324.7 140.6H326.6C326.6 141.4 326.4 142.1 325.9 142.7C325.4 143.2 324.7 143.5 323.8 143.5C322.8 143.5 322.1 143.2 321.6 142.7C321.2 142.2 321 141.5 321 140.6Z" fill="white"/>
<path d="M336.8 150.8L337.4 152.3C336.6 153 335.5 153.3 334.2 153.3C332.9 153.3 331.8 152.9 330.9 152.1C330 151.3 329.7 150.2 329.7 148.9C329.7 147.7 330.1 146.6 330.9 145.8C331.7 145 332.8 144.5 334.1 144.5C335.2 144.5 336.1 144.9 336.9 145.6C337.7 146.3 338 147.3 338 148.4C338 148.9 338 149.3 337.9 149.5H331.9C332 150.1 332.3 150.6 332.7 150.9C333.2 151.2 333.7 151.4 334.4 151.4C335.4 151.6 336.2 151.3 336.8 150.8ZM334.1 146.4C332.9 146.4 332.2 147 331.9 148.2H336C336 147.7 335.8 147.2 335.5 146.9C335.1 146.6 334.7 146.4 334.1 146.4Z" fill="white"/>
<path d="M339.8 156.9V144.8H341.9V145.6C342.2 145.3 342.5 145.1 343 144.9C343.5 144.7 344 144.6 344.5 144.6C345.6 144.6 346.6 145 347.2 145.8C347.8 146.6 348.2 147.6 348.2 148.9C348.2 150.2 347.8 151.3 347 152.1C346.2 153 345.1 153.4 343.8 153.4C343 153.4 342.3 153.3 341.9 153V156.9H339.8ZM343.9 146.6C343.2 146.6 342.5 146.9 342 147.5V150.9C342.5 151.2 343.1 151.4 343.8 151.4C344.5 151.4 345.1 151.2 345.5 150.7C345.9 150.2 346.1 149.6 346.1 148.9C346.1 148.2 345.9 147.7 345.5 147.2C345.1 146.8 344.6 146.6 343.9 146.6Z" fill="white"/>
<path d="M350.2 153.2V144.9C350.3 144.9 350.6 144.9 351 144.9C351.4 144.9 351.8 144.9 352.2 144.9C352.6 144.9 353 144.9 353.4 144.9C355.9 144.9 357.2 145.6 357.2 147.1C357.2 147.6 357 148 356.7 148.3C356.4 148.6 356 148.9 355.6 148.9C356.8 149.2 357.4 149.8 357.4 150.8C357.4 152.5 356.1 153.3 353.4 153.3C353 153.3 352.4 153.3 351.6 153.3C350.9 153.2 350.4 153.2 350.2 153.2ZM353.7 146.4C353.1 146.4 352.7 146.4 352.4 146.4V148.2H353.8C354.2 148.2 354.5 148.1 354.7 148C354.9 147.9 355.1 147.6 355.1 147.3C355 146.8 354.5 146.4 353.7 146.4ZM353.7 149.6H352.4V151.5C353.2 151.5 353.7 151.6 353.8 151.6C354.3 151.6 354.6 151.5 354.9 151.3C355.2 151.1 355.3 150.9 355.3 150.6C355.2 149.9 354.7 149.6 353.7 149.6Z" fill="white"/>
<path d="M366 150.8L366.6 152.3C365.8 153 364.7 153.3 363.4 153.3C362.1 153.3 361 152.9 360.1 152.1C359.2 151.3 358.9 150.2 358.9 148.9C358.9 147.7 359.3 146.6 360.1 145.8C360.9 145 362 144.5 363.3 144.5C364.4 144.5 365.3 144.9 366.1 145.6C366.9 146.3 367.2 147.3 367.2 148.4C367.2 148.9 367.2 149.3 367.1 149.5H361.1C361.2 150.1 361.5 150.6 361.9 150.9C362.4 151.2 362.9 151.4 363.6 151.4C364.6 151.6 365.4 151.3 366 150.8ZM363.3 146.4C362.1 146.4 361.4 147 361.1 148.2H365.2C365.2 147.7 365 147.2 364.7 146.9C364.4 146.6 363.9 146.4 363.3 146.4Z" fill="white"/>
<path d="M369.1 156.9V144.8H371.2V145.6C371.5 145.3 371.8 145.1 372.3 144.9C372.8 144.7 373.3 144.6 373.8 144.6C374.9 144.6 375.9 145 376.5 145.8C377.1 146.6 377.5 147.6 377.5 148.9C377.5 150.2 377.1 151.3 376.3 152.1C375.5 153 374.4 153.4 373.1 153.4C372.3 153.4 371.6 153.3 371.2 153V156.9H369.1ZM373.1 146.6C372.4 146.6 371.7 146.9 371.2 147.5V150.9C371.7 151.2 372.3 151.4 373 151.4C373.7 151.4 374.3 151.2 374.7 150.7C375.1 150.2 375.3 149.6 375.3 148.9C375.3 148.2 375.1 147.7 374.7 147.2C374.3 146.8 373.8 146.6 373.1 146.6Z" fill="white"/>
<path d="M379.4 153.2V144.9H381.5V153.2H379.4ZM387.3 144.8L384.1 148.8L387.7 153.2H384.9L381.6 149L384.6 144.9H387.3V144.8Z" fill="white"/>
<path d="M389.2 152.1C388.4 151.3 387.9 150.2 387.9 149C387.9 147.8 388.3 146.7 389.2 145.9C390 145.1 391.1 144.7 392.5 144.7C393.9 144.7 395 145.1 395.8 145.9C396.6 146.7 397.1 147.8 397.1 149C397.1 150.2 396.7 151.3 395.8 152.1C395 152.9 393.9 153.3 392.5 153.3C391.1 153.4 390 153 389.2 152.1ZM390.2 149C390.2 149.7 390.4 150.3 390.8 150.7C391.2 151.1 391.8 151.4 392.4 151.4C393.1 151.4 393.6 151.2 394 150.7C394.4 150.3 394.6 149.7 394.6 149C394.6 148.3 394.4 147.7 394 147.3C393.6 146.9 393 146.6 392.4 146.6C391.8 146.6 391.2 146.8 390.8 147.3C390.4 147.7 390.2 148.3 390.2 149Z" fill="white"/>
<path d="M398.9 153.2V144.9C399 144.9 399.3 144.9 399.7 144.9C400.1 144.9 400.5 144.9 400.9 144.9C401.3 144.9 401.7 144.9 402.1 144.9C404.6 144.9 405.9 145.6 405.9 147.1C405.9 147.6 405.7 148 405.4 148.3C405.1 148.6 404.7 148.9 404.3 148.9C405.5 149.2 406.1 149.8 406.1 150.8C406.1 152.5 404.8 153.3 402.1 153.3C401.7 153.3 401.1 153.3 400.3 153.3C399.6 153.2 399.1 153.2 398.9 153.2ZM402.3 146.4C401.7 146.4 401.3 146.4 401 146.4V148.2H402.4C402.8 148.2 403.1 148.1 403.3 148C403.5 147.9 403.7 147.6 403.7 147.3C403.7 146.8 403.2 146.4 402.3 146.4ZM402.3 149.6H401V151.5C401.8 151.5 402.3 151.6 402.4 151.6C402.9 151.6 403.2 151.5 403.5 151.3C403.8 151.1 403.9 150.9 403.9 150.6C403.9 149.9 403.4 149.6 402.3 149.6Z" fill="white"/>
</svg>