<svg width="191" height="104" viewBox="0 0 191 104" fill="none" xmlns="http://www.w3.org/2000/svg">
<path d="M5.10869 52.9621C5.56893 52.9621 46.8986 52.3207 46.8986 52.3207C46.8986 52.3207 5.66097 54.7489 5.20073 54.7489C4.74049 54.7489 4.32628 54.3824 4.28025 53.8784C4.23423 53.3744 4.60242 52.9621 5.10869 52.9621Z" fill="#F91155"/>
<path d="M25.5895 56.5357C25.8196 56.4899 46.8987 54.3366 46.8987 54.3366C46.8987 54.3366 25.9117 57.4062 25.6816 57.452C25.4514 57.4978 25.2213 57.3145 25.1753 57.0396C25.1753 56.8106 25.3594 56.5815 25.5895 56.5357Z" fill="#F91155"/>
<path d="M25.3595 49.526C25.5896 49.526 46.7607 50.1216 46.7607 50.1216C46.7607 50.1216 25.6357 48.6097 25.4056 48.6097C25.1754 48.6097 24.9453 48.7929 24.9453 49.0678C24.9453 49.3427 25.0834 49.526 25.3595 49.526Z" fill="#F91155"/>
<path d="M98.86 49.4802C98.3997 49.4802 57.1621 51.9084 57.1621 51.9084C57.1621 51.9084 98.4457 51.267 98.952 51.267C99.4122 51.267 99.8265 50.8546 99.7804 50.3507C99.7344 49.8467 99.3202 49.4802 98.86 49.4802Z" fill="#F91155"/>
<path d="M78.6551 54.6114C78.425 54.6114 57.2539 54.0159 57.2539 54.0159C57.2539 54.0159 78.379 55.5278 78.6091 55.5278C78.8392 55.5278 79.0693 55.3445 79.0693 55.0696C79.1154 54.8405 78.9313 54.6114 78.6551 54.6114Z" fill="#F91155"/>
<path d="M78.4249 47.5559C78.1948 47.6018 57.1157 49.7551 57.1157 49.7551C57.1157 49.7551 78.1027 46.6855 78.3328 46.6396C78.563 46.5938 78.7931 46.7771 78.8391 47.052C78.8391 47.3269 78.701 47.5559 78.4249 47.5559Z" fill="#F91155"/>
<path d="M51.1327 3.61938C51.1327 4.12335 51.731 46.7771 51.731 46.7771C51.731 46.7771 49.3838 4.21498 49.3838 3.71101C49.3838 3.20705 49.752 2.79471 50.2122 2.79471C50.7185 2.7489 51.1327 3.11542 51.1327 3.61938Z" fill="#F91155"/>
<path d="M47.6809 24.7859C47.7269 25.0608 49.798 46.8229 49.798 46.8229C49.798 46.8229 46.8064 25.1524 46.8064 24.9233C46.7604 24.6484 46.9445 24.4194 47.1746 24.4194C47.4047 24.4194 47.6349 24.511 47.6809 24.7859Z" fill="#F91155"/>
<path d="M54.4465 24.511C54.4465 24.7859 53.8481 46.6396 53.8481 46.6396C53.8481 46.6396 55.3209 24.8317 55.3209 24.5568C55.3209 24.2819 55.1368 24.0987 54.9067 24.0529C54.6766 24.0529 54.4925 24.2819 54.4465 24.511Z" fill="#F91155"/>
<path d="M54.4927 100.426C54.4927 99.9225 52.1455 57.3604 52.1455 57.3604C52.1455 57.3604 52.7438 100.014 52.7438 100.518C52.7438 101.022 53.158 101.389 53.6643 101.389C54.1245 101.343 54.4927 100.93 54.4927 100.426Z" fill="#F91155"/>
<path d="M49.5678 79.5806C49.5678 79.3057 50.1661 57.452 50.1661 57.452C50.1661 57.452 48.6934 79.2599 48.6934 79.5348C48.6934 79.8097 48.8775 79.993 49.1076 80.0388C49.3377 80.0388 49.5678 79.8555 49.5678 79.5806Z" fill="#F91155"/>
<path d="M56.3334 79.3515C56.2874 79.0767 54.2163 57.3145 54.2163 57.3145C54.2163 57.3145 57.2079 78.985 57.2079 79.2141C57.2539 79.489 57.0698 79.7181 56.8397 79.7181C56.6096 79.7639 56.3794 79.5806 56.3334 79.3515Z" fill="#F91155"/>
<path d="M18.2254 18.4176C18.5936 18.7383 48.1871 48.4722 48.1871 48.4722C48.1871 48.4722 17.397 20.067 17.0288 19.7462C16.6606 19.4255 16.6606 18.8299 16.9827 18.4634C17.3509 18.0969 17.9032 18.0969 18.2254 18.4176Z" fill="#F91155"/>
<path d="M30.2378 35.9189C30.4219 36.0564 46.8065 49.9383 46.8065 49.9383C46.8065 49.9383 29.9156 36.8352 29.6855 36.652C29.5014 36.5145 29.4554 36.1938 29.5935 36.0106C29.7776 35.8273 30.0537 35.7815 30.2378 35.9189Z" fill="#F91155"/>
<path d="M34.8861 30.7877C35.0702 30.9709 49.6138 46.8687 49.6138 46.8687C49.6138 46.8687 35.7145 30.3753 35.5304 30.1921C35.3463 30.0088 35.0702 30.0088 34.8861 30.1463C34.748 30.3295 34.702 30.6044 34.8861 30.7877Z" fill="#F91155"/>
<path d="M86.8937 84.437C86.5255 84.1163 55.7354 55.711 55.7354 55.711C55.7354 55.711 85.3749 85.4449 85.697 85.7656C86.0192 86.0863 86.6175 86.0863 86.9397 85.7198C87.2619 85.3533 87.2619 84.8035 86.8937 84.437Z" fill="#F91155"/>
<path d="M69.1281 73.304C68.944 73.1207 54.4004 57.2229 54.4004 57.2229C54.4004 57.2229 68.2997 73.7163 68.4838 73.8996C68.6679 74.0828 68.944 74.0828 69.1281 73.9454C69.2662 73.8079 69.3122 73.4872 69.1281 73.304Z" fill="#F91155"/>
<path d="M73.7767 68.1727C73.5926 68.0352 57.208 54.1533 57.208 54.1533C57.208 54.1533 74.1449 67.3022 74.329 67.4396C74.5131 67.5771 74.5591 67.8978 74.421 68.0811C74.2369 68.3101 73.9608 68.356 73.7767 68.1727Z" fill="#F91155"/>
<path d="M84.5921 17.1806C84.2699 17.5471 55.5049 48.1515 55.5049 48.1515C55.5049 48.1515 82.9813 16.356 83.3495 15.9894C83.6716 15.6229 84.2239 15.6229 84.5921 15.9436C84.8683 16.2643 84.9143 16.8141 84.5921 17.1806Z" fill="#F91155"/>
<path d="M67.6093 29.5965C67.4713 29.7797 54.0322 46.7313 54.0322 46.7313C54.0322 46.7313 66.7809 29.23 66.919 29.0467C67.057 28.8634 67.3332 28.8176 67.5633 28.9551C67.7474 29.0925 67.7934 29.3674 67.6093 29.5965Z" fill="#F91155"/>
<path d="M72.5801 34.3612C72.396 34.5445 57.0239 49.5718 57.0239 49.5718C57.0239 49.5718 72.9943 35.2317 73.1784 35.0485C73.3625 34.8652 73.3625 34.5903 73.2244 34.407C73.0863 34.2238 72.7642 34.2238 72.5801 34.3612Z" fill="#F91155"/>
<path d="M20.6648 88.1022C20.987 87.7357 48.5094 55.9401 48.5094 55.9401C48.5094 55.9401 19.7444 86.5445 19.4222 86.911C19.1 87.2775 19.1 87.8273 19.4682 88.1938C19.7444 88.4687 20.2967 88.4687 20.6648 88.1022Z" fill="#F91155"/>
<path d="M31.4347 69.7304C31.6187 69.5471 46.9908 54.5198 46.9908 54.5198C46.9908 54.5198 31.0204 68.9057 30.8363 69.0432C30.6522 69.2264 30.6522 69.5013 30.7903 69.6846C30.9744 69.9137 31.2506 69.9136 31.4347 69.7304Z" fill="#F91155"/>
<path d="M36.4051 74.541C36.5431 74.3577 49.9822 57.4062 49.9822 57.4062C49.9822 57.4062 37.2335 74.9075 37.0954 75.0908C36.9574 75.274 36.6812 75.3198 36.4511 75.1824C36.267 74.9991 36.267 74.7242 36.4051 74.541Z" fill="#F91155"/>
<path d="M57.8984 33.4449L58.4967 33.1242L58.5888 32.3912L59.0951 32.8952L59.7854 32.7577L59.4633 33.3991L59.8314 33.9947L59.1411 33.9031L58.6348 34.4529L58.5428 33.7656L57.8984 33.4449Z" fill="#F91155"/>
<path d="M59.187 70.1885L59.7853 69.8678L59.8313 69.1348L60.3376 69.6388L61.028 69.5013L60.7518 70.1427L61.074 70.7841L60.3836 70.6467L59.9234 71.1965L59.7853 70.5092L59.187 70.1885Z" fill="#F91155"/>
<path d="M42.9863 33.9947L43.5846 33.674L43.6767 32.941L44.183 33.4449L44.8733 33.3075L44.5511 33.9489L44.9193 34.5445L44.229 34.4529L43.7687 35.0027L43.6307 34.3154L42.9863 33.9947Z" fill="#F91155"/>
<path d="M44.2754 70.9674L44.8737 70.6009L44.9658 69.9137L45.472 70.3718L46.1164 70.2344L45.8402 70.8758L46.1624 71.5172L45.472 71.4255L45.0118 71.9295L44.9197 71.2423L44.2754 70.9674Z" fill="#F91155"/>
<path d="M32.585 45.1736L33.2293 44.8529L33.2753 44.1198L33.7816 44.6238L34.472 44.4863L34.1498 45.1278L34.518 45.7692L33.8276 45.6775L33.3674 46.1815L33.2293 45.4943L32.585 45.1736Z" fill="#F91155"/>
<path d="M68.4839 44.1198L69.1282 43.7533L69.1742 43.0661L69.6805 43.57L70.3709 43.3868L70.0487 44.0282L70.4169 44.6696L69.7265 44.578L69.2663 45.1278L69.1282 44.3947L68.4839 44.1198Z" fill="#F91155"/>
<path d="M68.9902 59.2846L69.5885 58.9181L69.6806 58.2308L70.1869 58.689L70.8312 58.5515L70.5551 59.193L70.8772 59.8344L70.1869 59.7427L69.7266 60.2467L69.6346 59.5595L68.9902 59.2846Z" fill="#F91155"/>
<path d="M23.4722 41.9207L24.3466 41.4167L24.4847 40.4088L25.1751 41.096L26.1876 40.9128L25.7273 41.8291L26.2336 42.7454L25.2211 42.6079L24.5767 43.3868L24.3926 42.333L23.4722 41.9207Z" fill="#F91155"/>
<path d="M38.3843 25.4731L39.2587 24.9692L39.3508 23.9612L40.0872 24.6485L41.0537 24.4652L40.6395 25.3815L41.1457 26.2978L40.1332 26.1603L39.4889 26.9392L39.3048 25.8855L38.3843 25.4731Z" fill="#F91155"/>
<path d="M40.2251 79.6722L41.1456 79.1683L41.2376 78.1603L41.974 78.8934L42.9405 78.6643L42.5263 79.5806L43.0326 80.4969L42.02 80.3595L41.3297 81.1383L41.1456 80.1304L40.2251 79.6722Z" fill="#F91155"/>
<path d="M76.0317 39.7216L76.9062 39.2634L77.0443 38.2097L77.7346 38.9427L78.7472 38.7137L78.2869 39.6758L78.7932 40.5463L77.7807 40.4088L77.1363 41.1877L76.9522 40.1797L76.0317 39.7216Z" fill="#F91155"/>
<path d="M60.6597 24.8317L61.5341 24.3277L61.6722 23.274L62.3626 24.007L63.3751 23.778L62.9148 24.7401L63.4211 25.6106L62.4546 25.4731L61.7642 26.252L61.5802 25.244L60.6597 24.8317Z" fill="#F91155"/>
<path d="M62.5469 78.8018L63.4213 78.2978L63.5134 77.244L64.2498 77.9771L65.2163 77.748L64.8021 78.7101L65.3083 79.5806L64.2958 79.4432L63.6054 80.222L63.4213 79.2141L62.5469 78.8018Z" fill="#F91155"/>
<path d="M13.5312 37.7974L14.7739 37.156L14.912 35.6899L15.9245 36.6978L17.2592 36.4229L16.6609 37.7057L17.3512 38.9427L15.9705 38.7595L15.05 39.8132L14.8199 38.393L13.5312 37.7974Z" fill="#F91155"/>
<path d="M33.4595 15.7604L34.7021 15.0731L34.8402 13.6529L35.8527 14.6608L37.2334 14.3401L36.6351 15.6229L37.3255 16.9057L35.9448 16.6767L34.9783 17.7762L34.7481 16.3559L33.4595 15.7604Z" fill="#F91155"/>
<path d="M36.0371 89.7973L37.2798 89.1101L37.4178 87.6899L38.4304 88.6978L39.7651 88.3771L39.1667 89.6599L39.8571 90.9427L38.4764 90.7136L37.5559 91.8132L37.3258 90.3929L36.0371 89.7973Z" fill="#F91155"/>
<path d="M63.375 14.6608L64.6177 13.9736L64.7557 12.5533L65.7683 13.5154L67.103 13.2405L66.5046 14.5234L67.195 15.7604L65.8143 15.5771L64.8938 16.6308L64.6637 15.2564L63.375 14.6608Z" fill="#F91155"/>
<path d="M65.9526 88.6978L67.1493 88.0106L67.3334 86.5903L68.2999 87.5982L69.6806 87.2775L69.0823 88.5603L69.7726 89.8432L68.3919 89.6141L67.4714 90.7136L67.1953 89.2934L65.9526 88.6978Z" fill="#F91155"/>
<path d="M32.9995 60.8881L33.6439 61.2088L33.7359 61.896L34.1961 61.3463L34.8865 61.4837L34.5643 60.8423L34.8405 60.2009L34.1961 60.3383L33.6899 59.8344L33.5978 60.5674L32.9995 60.8881Z" fill="#F91155"/>
<path d="M24.2549 64.9198L25.1754 65.3322L25.3595 66.3401L26.0498 65.607L27.0163 65.7445L26.5561 64.8282L26.9703 63.8661L26.0038 64.0951L25.2674 63.3621L25.1293 64.4159L24.2549 64.9198Z" fill="#F91155"/>
<path d="M14.6357 69.7304L15.9244 70.326L16.1545 71.7462L17.075 70.6467L18.4557 70.8758L17.7654 69.5929L18.3637 68.3101L17.029 68.6308L16.0165 67.6229L15.8784 69.0432L14.6357 69.7304Z" fill="#F91155"/>
<path d="M84.9146 35.1859L86.1572 34.4987L86.2953 33.0784L87.3078 34.0863L88.6425 33.7656L88.0442 35.0485L88.7345 36.3313L87.3538 36.1022L86.4333 37.2018L86.2032 35.7815L84.9146 35.1859Z" fill="#F91155"/>
<path d="M0 43.5242H191V61.8502H0V43.5242Z" fill="white"/>
<path d="M20.9409 49.7551C20.9409 50.3048 20.6188 50.6714 20.0205 50.6714H17.167C16.4766 50.6714 16.1544 50.3507 15.7862 49.7551C15.234 48.8388 14.4055 48.0599 12.7026 48.0599C10.1713 48.0599 8.60648 49.6634 8.60648 52.733C8.60648 55.8026 10.2173 57.4062 12.7026 57.4062C14.5436 57.4062 15.4181 56.4899 16.0164 55.4819C16.3385 54.9322 16.7067 54.5656 17.3971 54.5656H20.2506C20.8029 54.5656 21.1711 54.8863 21.1711 55.4819C21.1711 58.185 18.2255 61.163 12.7487 61.163C6.7195 61.163 3.40576 57.8643 3.40576 52.7789C3.40576 47.6476 6.7195 44.3947 12.7487 44.3947C18.0874 44.3031 20.9409 47.1436 20.9409 49.7551Z" fill="#012250"/>
<path d="M35.2542 57.8185H28.0745L27.292 59.8802C27.1079 60.3383 26.7398 60.659 26.2795 60.659H22.6436C22.1834 60.659 21.8612 60.3383 22.0913 59.8802L28.4887 45.5859C28.6728 45.1278 29.041 44.8071 29.5012 44.8071H34.1957C34.6559 44.8071 35.0241 45.1278 35.2082 45.5859L41.6055 59.926C41.7896 60.3841 41.5135 60.7048 41.0532 60.7048H37.1872C36.727 60.7048 36.3588 60.3841 36.1747 59.926L35.2542 57.8185ZM29.6853 54.0617H33.6894L31.8484 49.526H31.6183L29.6853 54.0617Z" fill="#012250"/>
<path d="M59.8773 59.8802C59.8773 60.3383 59.5551 60.659 59.0949 60.659H55.6891C55.2289 60.659 54.9067 60.3383 54.9067 59.8802V48.6555H52.1913C50.7185 48.6555 49.8901 49.4344 49.5679 50.7172L47.2667 59.926C47.1746 60.3841 46.8065 60.7048 46.3922 60.7048H42.9404C42.3881 60.7048 42.02 60.3383 42.158 59.926L44.4592 50.7172C45.3797 47.0978 47.6349 44.8071 52.2373 44.8071H59.1869C59.6472 44.8071 59.9693 45.1278 59.9693 45.5859V59.8802H59.8773Z" fill="#012250"/>
<path d="M79.0233 61.1172C73.8686 61.1172 71.2452 58.5057 70.6009 54.7489H68.2997V59.8802C68.2997 60.3383 67.9775 60.659 67.5173 60.659H64.1115C63.6513 60.659 63.3291 60.3383 63.3291 59.8802V45.5859C63.3291 45.1278 63.6513 44.8071 64.1115 44.8071H67.5173C67.9775 44.8071 68.2997 45.1278 68.2997 45.5859V50.9004H70.6009C71.2913 46.9145 73.9146 44.3031 79.0233 44.3031C84.5002 44.3031 87.6758 47.4643 87.6758 52.6872C87.7219 57.956 84.5002 61.1172 79.0233 61.1172ZM79.0233 48.0599C77.0903 48.0599 75.6175 49.526 75.6175 52.733C75.6175 55.8943 77.0903 57.4062 79.0233 57.4062C80.9563 57.4062 82.4291 55.9401 82.4291 52.733C82.4751 49.526 81.0023 48.0599 79.0233 48.0599Z" fill="#012250"/>
<path d="M104.797 47.8308C104.797 48.289 104.475 48.6097 104.015 48.6097H99.228V59.8344C99.228 60.2925 98.9058 60.6132 98.4456 60.6132H95.0398C94.5796 60.6132 94.2574 60.2925 94.2574 59.8344V48.6097H89.4709C89.0106 48.6097 88.6885 48.289 88.6885 47.8308V45.5401C88.6885 45.0819 89.0106 44.7612 89.4709 44.7612H104.015C104.475 44.7612 104.797 45.0819 104.797 45.5401V47.8308Z" fill="#012250"/>
<path d="M130.34 49.7551C130.34 50.3048 130.018 50.6714 129.42 50.6714H126.566C125.876 50.6714 125.554 50.3507 125.186 49.7551C124.633 48.8388 123.805 48.0599 122.102 48.0599C119.571 48.0599 118.006 49.6634 118.006 52.733C118.006 55.8026 119.617 57.4062 122.102 57.4062C123.943 57.4062 124.817 56.4899 125.416 55.4819C125.738 54.9322 126.106 54.5656 126.796 54.5656H129.65C130.202 54.5656 130.57 54.8863 130.57 55.4819C130.57 58.185 127.625 61.163 122.148 61.163C116.119 61.163 112.805 57.8643 112.805 52.7789C112.805 47.6476 116.119 44.3947 122.148 44.3947C127.533 44.3031 130.34 47.1436 130.34 49.7551Z" fill="#012250"/>
<path d="M144.746 51.5877L139.039 59.8802C138.808 60.2009 138.348 60.659 137.796 60.659H133.93C133.47 60.659 133.147 60.3383 133.147 59.8802V45.5859C133.147 45.1278 133.47 44.8071 133.93 44.8071H137.336C137.796 44.8071 138.118 45.1278 138.118 45.5859V53.8784H138.348L144.055 45.5859C144.285 45.2652 144.746 44.8071 145.298 44.8071H149.164C149.624 44.8071 149.946 45.1278 149.946 45.5859V59.8802C149.946 60.3383 149.624 60.659 149.164 60.659H145.758C145.298 60.659 144.976 60.3383 144.976 59.8802V51.5877H144.746Z" fill="#012250"/>
<path d="M168.218 47.8308C168.218 48.289 167.896 48.6097 167.435 48.6097H162.649V59.8344C162.649 60.2925 162.327 60.6132 161.866 60.6132H158.461C158 60.6132 157.678 60.2925 157.678 59.8344V48.6097H152.892C152.432 48.6097 152.109 48.289 152.109 47.8308V45.5401C152.109 45.0819 152.432 44.7612 152.892 44.7612H167.481C167.942 44.7612 168.264 45.0819 168.264 45.5401V47.8308H168.218Z" fill="#012250"/>
<path d="M181.887 51.5877L176.18 59.8802C175.95 60.2009 175.49 60.659 174.937 60.659H171.071C170.611 60.659 170.289 60.3383 170.289 59.8802V45.5859C170.289 45.1278 170.611 44.8071 171.071 44.8071H174.477C174.937 44.8071 175.26 45.1278 175.26 45.5859V53.8784H175.49L181.197 45.5859C181.427 45.2652 181.887 44.8071 182.439 44.8071H186.305C186.766 44.8071 187.088 45.1278 187.088 45.5859V59.8802C187.088 60.3383 186.766 60.659 186.305 60.659H182.9C182.439 60.659 182.117 60.3383 182.117 59.8802V51.5877H181.887Z" fill="#012250"/>
<path d="M82.291 70.1885V64.2326H85.6508V65.1947H83.3496V70.1427H82.291V70.1885Z" fill="#012250"/>
<path d="M86.2492 70.1885H85.2827V66.3859H86.2492V68.8141L88.0442 66.3859H89.0107V70.1885H88.0442V67.7604L86.2492 70.1885Z" fill="#012250"/>
<path d="M92.7386 70.1885V67.3022H91.0817V70.1885H90.1152V66.3859H93.7051V70.1885H92.7386Z" fill="#012250"/>
<path d="M97.4329 70.1885V67.3022H95.7761V70.1885H94.8096V66.3859H98.3995V70.1885H97.4329Z" fill="#012250"/>
<path d="M102.496 69.089L102.772 69.7762C102.404 70.0969 101.897 70.2344 101.299 70.2344C100.701 70.2344 100.195 70.0511 99.7803 69.6846C99.3661 69.3181 99.228 68.8141 99.228 68.2185C99.228 67.6687 99.4121 67.1648 99.7803 66.7982C100.149 66.4317 100.655 66.2026 101.253 66.2026C101.759 66.2026 102.174 66.3859 102.542 66.7066C102.91 67.0273 103.048 67.4855 103.048 67.9894C103.048 68.2185 103.048 68.4018 103.002 68.4934H100.241C100.287 68.7683 100.425 68.9974 100.609 69.1348C100.839 69.2722 101.069 69.3639 101.391 69.3639C101.851 69.4555 102.22 69.3181 102.496 69.089ZM101.253 67.0731C100.701 67.0731 100.379 67.348 100.241 67.8978H102.128C102.128 67.6687 102.035 67.4396 101.897 67.3022C101.713 67.1648 101.529 67.0731 101.253 67.0731Z" fill="#012250"/>
<path d="M103.876 71.8837V66.3401H104.843V66.7066C104.981 66.5692 105.119 66.4775 105.349 66.3859C105.579 66.2943 105.809 66.2485 106.04 66.2485C106.546 66.2485 107.006 66.4317 107.282 66.7982C107.558 67.1648 107.742 67.6229 107.742 68.2185C107.742 68.8141 107.558 69.3181 107.19 69.6846C106.822 70.0969 106.316 70.2802 105.717 70.2802C105.349 70.2802 105.027 70.2344 104.843 70.0969V71.8837H103.876ZM105.763 67.1648C105.441 67.1648 105.119 67.3022 104.889 67.5771V69.1348C105.119 69.2722 105.395 69.3639 105.717 69.3639C106.04 69.3639 106.316 69.2722 106.5 69.0432C106.684 68.8141 106.776 68.5392 106.776 68.2185C106.776 67.8978 106.684 67.6687 106.5 67.4396C106.316 67.2564 106.086 67.1648 105.763 67.1648Z" fill="#012250"/>
<path d="M108.663 70.1885V66.3859H109.537L110.826 67.9894L112.068 66.3859H112.943V70.1885H111.976V67.852L110.826 69.2722H110.78L109.629 67.852V70.1885H108.663Z" fill="#012250"/>
<path d="M114.324 67.348L114.094 66.615C114.508 66.3859 114.968 66.2485 115.428 66.2485C115.981 66.2485 116.349 66.3859 116.625 66.6608C116.855 66.9357 116.993 67.3022 116.993 67.852V70.1885H116.119V69.7304C115.889 70.0511 115.52 70.2344 114.968 70.2344C114.6 70.2344 114.324 70.1427 114.094 69.9137C113.864 69.6846 113.771 69.4097 113.771 69.0432C113.771 68.6308 113.91 68.3559 114.186 68.1269C114.462 67.8978 114.784 67.8062 115.198 67.8062C115.566 67.8062 115.843 67.8978 116.073 68.0352C116.073 67.7145 116.027 67.4396 115.935 67.3022C115.843 67.1189 115.658 67.0731 115.382 67.0731C115.06 67.0731 114.738 67.1648 114.324 67.348ZM115.336 69.4097C115.658 69.4097 115.935 69.2722 116.073 69.0432V68.6308C115.889 68.4934 115.704 68.4476 115.382 68.4476C115.198 68.4476 115.06 68.4934 114.922 68.585C114.784 68.6766 114.738 68.7683 114.738 68.9515C114.738 69.089 114.784 69.1806 114.876 69.2722C115.014 69.3639 115.152 69.4097 115.336 69.4097Z" fill="#012250"/>
<path d="M118.006 71.8837V66.3401H118.972V66.7066C119.11 66.5692 119.249 66.4775 119.479 66.3859C119.709 66.2943 119.939 66.2485 120.169 66.2485C120.675 66.2485 121.135 66.4317 121.412 66.7982C121.688 67.1648 121.872 67.6229 121.872 68.2185C121.872 68.8141 121.688 69.3181 121.32 69.6846C120.951 70.0969 120.445 70.2802 119.847 70.2802C119.479 70.2802 119.156 70.2344 118.972 70.0969V71.8837H118.006ZM119.847 67.1648C119.525 67.1648 119.202 67.3022 118.972 67.5771V69.1348C119.202 69.2722 119.479 69.3639 119.801 69.3639C120.123 69.3639 120.399 69.2722 120.583 69.0432C120.767 68.8141 120.859 68.5392 120.859 68.2185C120.859 67.8978 120.767 67.6687 120.583 67.4396C120.445 67.2564 120.169 67.1648 119.847 67.1648Z" fill="#012250"/>
<path d="M122.746 70.1885V66.3859H123.713V70.1885H122.746ZM126.382 66.3401L124.909 68.1727L126.566 70.1885H125.277L123.759 68.2643L125.139 66.3859H126.382V66.3401Z" fill="#012250"/>
<path d="M129.926 69.089L130.202 69.7762C129.834 70.0969 129.328 70.2344 128.729 70.2344C128.131 70.2344 127.625 70.0511 127.21 69.6846C126.796 69.3181 126.658 68.8141 126.658 68.2185C126.658 67.6687 126.842 67.1648 127.21 66.7982C127.579 66.4317 128.085 66.2026 128.683 66.2026C129.19 66.2026 129.604 66.3859 129.972 66.7066C130.34 67.0273 130.478 67.4855 130.478 67.9894C130.478 68.2185 130.478 68.4018 130.432 68.4934H127.671C127.717 68.7683 127.855 68.9974 128.039 69.1348C128.269 69.2722 128.499 69.3639 128.821 69.3639C129.282 69.4555 129.65 69.3181 129.926 69.089ZM128.683 67.0731C128.131 67.0731 127.809 67.348 127.671 67.8978H129.558C129.558 67.6687 129.466 67.4396 129.328 67.3022C129.143 67.1648 128.959 67.0731 128.683 67.0731Z" fill="#012250"/>
<path d="M130.893 67.3022V66.3401H134.39V67.3022H133.148V70.1427H132.181V67.3022H130.893Z" fill="#012250"/>
<path d="M138.763 71.8837V70.2802H138.717C138.072 70.2802 137.566 70.0969 137.198 69.7304C136.83 69.3639 136.646 68.8599 136.646 68.2643C136.646 67.7145 136.83 67.2564 137.198 66.844C137.566 66.4317 138.072 66.2485 138.717 66.2485H138.763V64.2326H139.729V66.2485H139.775C140.419 66.2485 140.926 66.4317 141.294 66.7982C141.662 67.1648 141.846 67.6687 141.846 68.2185C141.846 68.8141 141.662 69.3181 141.34 69.6846C140.972 70.0511 140.466 70.2344 139.821 70.2344H139.775V71.8379H138.763V71.8837ZM137.704 68.2643C137.704 68.585 137.796 68.8599 137.98 69.0432C138.164 69.2264 138.44 69.3639 138.763 69.3639H138.809V67.1648H138.763C138.44 67.1648 138.164 67.2564 137.98 67.4855C137.796 67.7145 137.704 67.9436 137.704 68.2643ZM139.821 67.1648H139.775V69.3639H139.821C140.143 69.3639 140.419 69.2722 140.604 69.089C140.788 68.9057 140.88 68.6308 140.88 68.3101C140.88 67.9894 140.788 67.7603 140.604 67.5313C140.419 67.3022 140.143 67.1648 139.821 67.1648Z" fill="#012250"/>
<path d="M145.758 69.089L146.035 69.7762C145.666 70.0969 145.16 70.2344 144.562 70.2344C143.963 70.2344 143.457 70.0511 143.043 69.6846C142.629 69.3181 142.491 68.8141 142.491 68.2185C142.491 67.6687 142.675 67.1648 143.043 66.7982C143.411 66.4317 143.917 66.2026 144.516 66.2026C145.022 66.2026 145.436 66.3859 145.804 66.7066C146.173 67.0273 146.311 67.4855 146.311 67.9894C146.311 68.2185 146.311 68.4018 146.265 68.4934H143.503C143.549 68.7683 143.687 68.9974 143.871 69.1348C144.102 69.2722 144.332 69.3639 144.654 69.3639C145.114 69.4555 145.482 69.3181 145.758 69.089ZM144.516 67.0731C143.963 67.0731 143.641 67.348 143.503 67.8978H145.39C145.39 67.6687 145.298 67.4396 145.16 67.3022C144.976 67.1648 144.792 67.0731 144.516 67.0731Z" fill="#012250"/>
<path d="M148.152 70.1885H147.185V66.3859H148.152V68.8141L149.947 66.3859H150.913V70.1885H149.947V67.7604L148.152 70.1885ZM147.737 64.4159H148.612C148.612 64.5991 148.658 64.7366 148.704 64.874C148.796 65.0115 148.888 65.0573 149.026 65.0573C149.164 65.0573 149.256 65.0115 149.348 64.874C149.44 64.7366 149.44 64.5991 149.44 64.4159H150.315C150.315 64.7824 150.223 65.1031 149.993 65.378C149.762 65.607 149.44 65.7445 149.026 65.7445C148.566 65.7445 148.244 65.607 148.013 65.378C147.829 65.1489 147.737 64.8282 147.737 64.4159Z" fill="#012250"/>
<path d="M155.009 69.089L155.285 69.7762C154.917 70.0969 154.411 70.2344 153.812 70.2344C153.214 70.2344 152.708 70.0511 152.293 69.6846C151.879 69.3181 151.741 68.8141 151.741 68.2185C151.741 67.6687 151.925 67.1648 152.293 66.7982C152.662 66.4317 153.168 66.2026 153.766 66.2026C154.273 66.2026 154.687 66.3859 155.055 66.7066C155.423 67.0273 155.561 67.4855 155.561 67.9894C155.561 68.2185 155.561 68.4018 155.515 68.4934H152.754C152.8 68.7683 152.938 68.9974 153.122 69.1348C153.352 69.2722 153.582 69.3639 153.904 69.3639C154.365 69.4555 154.733 69.3181 155.009 69.089ZM153.766 67.0731C153.214 67.0731 152.892 67.348 152.754 67.8978H154.641C154.641 67.6687 154.549 67.4396 154.411 67.3022C154.226 67.1648 154.042 67.0731 153.766 67.0731Z" fill="#012250"/>
<path d="M156.39 71.8837V66.3401H157.356V66.7066C157.494 66.5692 157.632 66.4775 157.862 66.3859C158.093 66.2943 158.323 66.2485 158.553 66.2485C159.059 66.2485 159.519 66.4317 159.795 66.7982C160.072 67.1648 160.256 67.6229 160.256 68.2185C160.256 68.8141 160.072 69.3181 159.703 69.6846C159.335 70.0969 158.829 70.2802 158.231 70.2802C157.862 70.2802 157.54 70.2344 157.356 70.0969V71.8837H156.39ZM158.277 67.1648C157.954 67.1648 157.632 67.3022 157.402 67.5771V69.1348C157.632 69.2722 157.908 69.3639 158.231 69.3639C158.553 69.3639 158.829 69.2722 159.013 69.0432C159.197 68.8141 159.289 68.5392 159.289 68.2185C159.289 67.8978 159.197 67.6687 159.013 67.4396C158.829 67.2564 158.599 67.1648 158.277 67.1648Z" fill="#012250"/>
<path d="M161.176 70.1885V66.3859C161.222 66.3859 161.36 66.3859 161.544 66.3859C161.729 66.3859 161.913 66.3859 162.097 66.3859C162.281 66.3859 162.465 66.3859 162.649 66.3859C163.8 66.3859 164.398 66.7066 164.398 67.3938C164.398 67.6229 164.306 67.8062 164.168 67.9436C164.03 68.0811 163.846 68.2185 163.662 68.2185C164.214 68.3559 164.49 68.6308 164.49 69.089C164.49 69.8678 163.892 70.2344 162.649 70.2344C162.465 70.2344 162.189 70.2344 161.821 70.2344C161.498 70.1885 161.268 70.1885 161.176 70.1885ZM162.787 67.0731C162.511 67.0731 162.327 67.0731 162.189 67.0731V67.8978H162.833C163.017 67.8978 163.155 67.852 163.247 67.8062C163.339 67.7604 163.431 67.6229 163.431 67.4855C163.385 67.2564 163.155 67.0731 162.787 67.0731ZM162.787 68.5392H162.189V69.4097C162.557 69.4097 162.787 69.4555 162.833 69.4555C163.063 69.4555 163.201 69.4097 163.339 69.3181C163.477 69.2264 163.523 69.1348 163.523 68.9974C163.477 68.6767 163.247 68.5392 162.787 68.5392Z" fill="#012250"/>
<path d="M168.448 69.089L168.725 69.7762C168.356 70.0969 167.85 70.2344 167.252 70.2344C166.653 70.2344 166.147 70.0511 165.733 69.6846C165.319 69.3181 165.181 68.8141 165.181 68.2185C165.181 67.6687 165.365 67.1648 165.733 66.7982C166.101 66.4317 166.607 66.2026 167.206 66.2026C167.712 66.2026 168.126 66.3859 168.494 66.7066C168.863 67.0273 169.001 67.4855 169.001 67.9894C169.001 68.2185 169.001 68.4018 168.955 68.4934H166.193C166.239 68.7683 166.377 68.9974 166.561 69.1348C166.792 69.2722 167.022 69.3639 167.344 69.3639C167.804 69.4555 168.172 69.3181 168.448 69.089ZM167.206 67.0731C166.653 67.0731 166.331 67.348 166.193 67.8978H168.08C168.08 67.6687 167.988 67.4396 167.85 67.3022C167.712 67.1648 167.482 67.0731 167.206 67.0731Z" fill="#012250"/>
<path d="M169.875 71.8837V66.3401H170.842V66.7066C170.98 66.5692 171.118 66.4775 171.348 66.3859C171.578 66.2943 171.808 66.2485 172.038 66.2485C172.544 66.2485 173.005 66.4317 173.281 66.7982C173.557 67.1648 173.741 67.6229 173.741 68.2185C173.741 68.8141 173.557 69.3181 173.189 69.6846C172.821 70.0969 172.314 70.2802 171.716 70.2802C171.348 70.2802 171.026 70.2344 170.842 70.0969V71.8837H169.875ZM171.716 67.1648C171.394 67.1648 171.072 67.3022 170.842 67.5771V69.1348C171.072 69.2722 171.348 69.3639 171.67 69.3639C171.992 69.3639 172.268 69.2722 172.452 69.0432C172.636 68.8141 172.728 68.5392 172.728 68.2185C172.728 67.8978 172.636 67.6687 172.452 67.4396C172.268 67.2564 172.038 67.1648 171.716 67.1648Z" fill="#012250"/>
<path d="M174.615 70.1885V66.3859H175.582V70.1885H174.615ZM178.251 66.3401L176.778 68.1727L178.435 70.1885H177.147L175.628 68.2643L177.008 66.3859H178.251V66.3401Z" fill="#012250"/>
<path d="M179.126 69.6846C178.757 69.3181 178.527 68.8141 178.527 68.2643C178.527 67.7145 178.711 67.2106 179.126 66.8441C179.494 66.4775 180 66.2943 180.644 66.2943C181.289 66.2943 181.795 66.4775 182.163 66.8441C182.531 67.2106 182.762 67.7145 182.762 68.2643C182.762 68.8141 182.577 69.3181 182.163 69.6846C181.795 70.0511 181.289 70.2344 180.644 70.2344C180 70.2802 179.494 70.0969 179.126 69.6846ZM179.586 68.2643C179.586 68.585 179.678 68.8599 179.862 69.0432C180.046 69.2264 180.322 69.3639 180.598 69.3639C180.921 69.3639 181.151 69.2722 181.335 69.0432C181.519 68.8599 181.611 68.585 181.611 68.2643C181.611 67.9436 181.519 67.6687 181.335 67.4855C181.151 67.3022 180.875 67.1648 180.598 67.1648C180.322 67.1648 180.046 67.2564 179.862 67.4855C179.678 67.6687 179.586 67.9436 179.586 68.2643Z" fill="#012250"/>
<path d="M183.59 70.1885V66.3859C183.636 66.3859 183.774 66.3859 183.958 66.3859C184.142 66.3859 184.326 66.3859 184.51 66.3859C184.694 66.3859 184.879 66.3859 185.063 66.3859C186.213 66.3859 186.812 66.7066 186.812 67.3938C186.812 67.6229 186.719 67.8062 186.581 67.9436C186.443 68.0811 186.259 68.2185 186.075 68.2185C186.627 68.3559 186.904 68.6308 186.904 69.089C186.904 69.8678 186.305 70.2344 185.063 70.2344C184.879 70.2344 184.602 70.2344 184.234 70.2344C183.912 70.1885 183.682 70.1885 183.59 70.1885ZM185.155 67.0731C184.879 67.0731 184.694 67.0731 184.556 67.0731V67.8978H185.201C185.385 67.8978 185.523 67.852 185.615 67.8062C185.707 67.7604 185.799 67.6229 185.799 67.4855C185.799 67.2564 185.569 67.0731 185.155 67.0731ZM185.155 68.5392H184.556V69.4097C184.925 69.4097 185.155 69.4555 185.201 69.4555C185.431 69.4555 185.569 69.4097 185.707 69.3181C185.845 69.2264 185.891 69.1348 185.891 68.9974C185.891 68.6767 185.661 68.5392 185.155 68.5392Z" fill="#012250"/>
</svg>